<svg width="41" height="16" viewBox="0 0 41 16" fill="none" xmlns="http://www.w3.org/2000/svg">
<g clip-path="url(#clip0_1709_4148)">
<path d="M8.29937 2.0628C7.83062 2.60324 7.08062 3.0295 6.33062 2.9686C6.23687 2.23787 6.60406 1.46147 7.03375 0.981922C7.5025 0.426261 8.32281 0.0304472 8.98687 0C9.065 0.76118 8.76031 1.50714 8.29937 2.0628ZM8.97906 3.11323C7.89312 3.05233 6.96344 3.71456 6.44781 3.71456C5.92437 3.71456 5.13531 3.14367 4.27594 3.1589C3.15875 3.17412 2.11969 3.79068 1.54937 4.7726C0.377498 6.73644 1.24469 9.64415 2.3775 11.2426C2.93219 12.0343 3.59625 12.902 4.47125 12.8716C5.29937 12.8411 5.6275 12.3463 6.6275 12.3463C7.63531 12.3463 7.92437 12.8716 8.79937 12.8563C9.70562 12.8411 10.2759 12.0647 10.8306 11.2731C11.4634 10.3749 11.7212 9.49952 11.7369 9.45385C11.7212 9.43863 9.98687 8.79163 9.97125 6.84301C9.95562 5.21408 11.3384 4.43768 11.4009 4.39201C10.6197 3.26546 9.40094 3.14367 8.97906 3.11323ZM15.2525 0.905804V12.7726H17.1431V8.71551H19.7603C22.1509 8.71551 23.8306 7.11703 23.8306 4.80304C23.8306 2.48906 22.1822 0.905804 19.8228 0.905804H15.2525ZM17.1431 2.45861H19.3228C20.9634 2.45861 21.9009 3.31113 21.9009 4.81066C21.9009 6.31018 20.9634 7.17031 19.315 7.17031H17.1431V2.45861ZM27.2837 12.8639C28.4712 12.8639 29.5728 12.2778 30.0728 11.3492H30.1119V12.7726H31.8619V6.86584C31.8619 5.15319 30.4556 4.04948 28.2916 4.04948C26.2837 4.04948 24.7994 5.16841 24.7447 6.70599H26.4478C26.5884 5.97526 27.2837 5.49572 28.2369 5.49572C29.3931 5.49572 30.0416 6.02093 30.0416 6.98763V7.64225L27.6822 7.77926C25.4869 7.90866 24.2994 8.78401 24.2994 10.3064C24.2994 11.844 25.5259 12.8639 27.2837 12.8639ZM27.7916 11.4558C26.7837 11.4558 26.1431 10.9838 26.1431 10.2607C26.1431 9.51475 26.7603 9.08088 27.94 9.01237L30.0416 8.88297V9.55281C30.0416 10.6641 29.0728 11.4558 27.7916 11.4558ZM34.1978 16C36.0416 16 36.9087 15.3149 37.6666 13.2369L40.9869 4.16365H39.065L36.8384 11.1741H36.7994L34.5728 4.16365H32.5962L35.7994 12.803L35.6275 13.3283C35.3384 14.2188 34.8697 14.5614 34.0337 14.5614C33.8853 14.5614 33.5962 14.5461 33.4791 14.5309V15.9543C33.5884 15.9848 34.0572 16 34.1978 16Z" fill="black"/>
</g>
<defs>
<clipPath id="clip0_1709_4148">
<rect width="40" height="16" fill="white" transform="translate(0.986816)"/>
</clipPath>
</defs>
</svg>
