<svg id="Capa_1" enable-background="new 0 0 512 512" height="512" viewBox="0 0 512 512" width="512" xmlns="http://www.w3.org/2000/svg"><g><path d="m295.772 183.585c-1.899-2.3-4.727-3.632-7.71-3.632s-5.811 1.332-7.71 3.632l-57.356 69.438-22.08-27.061c-1.861-2.281-4.634-3.626-7.578-3.677-2.921-.046-5.76 1.2-7.699 3.417l-75.877 86.78c-2.582 2.953-3.199 7.144-1.577 10.716s5.183 5.866 9.105 5.866h277.418c3.872 0 7.396-2.235 9.047-5.739 1.649-3.503 1.129-7.644-1.337-10.629zm-102.868 64.193 17.107 20.966-33.305 40.321h-37.388zm9.742 61.286 85.416-103.409 85.416 103.409z"/><path d="m213.005 199.953c25.545 0 46.327-20.782 46.327-46.326 0-25.545-20.782-46.327-46.327-46.327s-46.327 20.782-46.327 46.327c0 25.544 20.782 46.326 46.327 46.326zm0-72.653c14.517 0 26.327 11.811 26.327 26.327s-11.811 26.326-26.327 26.326-26.327-11.81-26.327-26.326 11.811-26.327 26.327-26.327z"/><path d="m475.249 39.628h-438.498c-20.264 0-36.751 16.486-36.751 36.751v283.606c0 20.265 16.487 36.751 36.751 36.751h438.498c20.265 0 36.751-16.486 36.751-36.751v-283.606c0-20.265-16.486-36.751-36.751-36.751zm16.751 320.357c0 9.236-7.515 16.751-16.751 16.751h-438.498c-9.237 0-16.751-7.515-16.751-16.751v-283.606c0-9.236 7.515-16.751 16.751-16.751h438.498c9.236 0 16.751 7.515 16.751 16.751z"/><path d="m447.083 194.039c-3.906-3.904-10.236-3.904-14.143 0-3.905 3.905-3.905 10.237 0 14.143l10.001 10.001-10.001 10c-3.905 3.905-3.905 10.236 0 14.143 1.953 1.952 4.512 2.929 7.071 2.929s5.118-.977 7.071-2.929l17.072-17.071c1.875-1.875 2.929-4.419 2.929-7.071s-1.054-5.195-2.929-7.071z"/><path d="m79.06 194.039c-3.905-3.903-10.237-3.904-14.142 0l-17.072 17.071c-1.875 1.875-2.929 4.419-2.929 7.071s1.054 5.195 2.929 7.071l17.072 17.072c1.953 1.952 4.512 2.929 7.071 2.929s5.119-.977 7.071-2.929c3.905-3.905 3.906-10.237 0-14.143l-10.001-10.001 10-10c3.905-3.904 3.906-10.236.001-14.141z"/><path d="m175.708 418.287c-14.911 0-27.042 12.132-27.042 27.043s12.131 27.042 27.042 27.042 27.042-12.131 27.042-27.042-12.13-27.043-27.042-27.043zm0 34.085c-3.883 0-7.042-3.159-7.042-7.042 0-3.884 3.159-7.043 7.042-7.043s7.042 3.159 7.042 7.043c.001 3.883-3.158 7.042-7.042 7.042z"/><path d="m256 418.287c-14.911 0-27.042 12.132-27.042 27.043s12.131 27.042 27.042 27.042 27.043-12.131 27.043-27.042-12.132-27.043-27.043-27.043zm0 34.085c-3.883 0-7.042-3.159-7.042-7.042 0-3.884 3.159-7.043 7.042-7.043 3.884 0 7.043 3.159 7.043 7.043 0 3.883-3.159 7.042-7.043 7.042z"/><path d="m336.291 418.287c-14.911 0-27.042 12.132-27.042 27.043s12.131 27.042 27.042 27.042 27.043-12.131 27.043-27.042-12.132-27.043-27.043-27.043zm0 34.085c-3.883 0-7.042-3.159-7.042-7.042 0-3.884 3.159-7.043 7.042-7.043 3.884 0 7.043 3.159 7.043 7.043 0 3.883-3.159 7.042-7.043 7.042z"/></g></svg>