<svg width="41" height="16" viewBox="0 0 41 16" fill="none" xmlns="http://www.w3.org/2000/svg">
<g clip-path="url(#clip0_1709_4150)">
<path d="M19.9058 7.817V12.5071H18.4286V0.924606H22.3463C22.814 0.914767 23.2789 0.998308 23.7143 1.17041C24.1498 1.34251 24.547 1.59976 24.8832 1.92732C25.2228 2.23499 25.4931 2.61232 25.6759 3.03394C25.8586 3.45556 25.9497 3.91171 25.9429 4.37173C25.9526 4.8342 25.863 5.29333 25.6801 5.71764C25.4972 6.14195 25.2253 6.5214 24.8832 6.83C24.1982 7.488 23.3525 7.81669 22.3463 7.81608H19.9058V7.817ZM19.9058 2.35059V6.39379H22.383C22.6546 6.4019 22.9249 6.35283 23.1766 6.24971C23.4282 6.14659 23.6558 5.99169 23.8446 5.79494C24.0325 5.61097 24.1818 5.39093 24.2838 5.14783C24.3857 4.90472 24.4383 4.64349 24.4383 4.37958C24.4383 4.11567 24.3857 3.85444 24.2838 3.61134C24.1818 3.36824 24.0325 3.1482 23.8446 2.96423C23.6581 2.76332 23.4314 2.60464 23.1794 2.49868C22.9274 2.39273 22.656 2.34194 22.383 2.34966H19.9058V2.35059Z" fill="black"/>
<path d="M29.3466 4.32227C30.4385 4.32227 31.3003 4.61615 31.9321 5.20392C32.564 5.79168 32.8796 6.59755 32.879 7.62152V12.5057H31.466V11.406H31.4018C30.7902 12.3116 29.9766 12.7645 28.9613 12.7645C28.0946 12.7645 27.3694 12.5057 26.7859 11.9882C26.5059 11.7506 26.282 11.4532 26.1306 11.1174C25.9791 10.7817 25.904 10.4161 25.9106 10.0474C25.9106 9.2274 26.2183 8.57525 26.8336 8.09099C27.449 7.60673 28.2704 7.36399 29.298 7.36275C30.1751 7.36275 30.8975 7.52448 31.4651 7.84794V7.50785C31.4668 7.25649 31.4129 7.00791 31.3074 6.78013C31.2019 6.55235 31.0473 6.35108 30.855 6.19092C30.4644 5.83593 29.9553 5.64223 29.4292 5.64844C28.6041 5.64844 27.9511 5.999 27.4704 6.70013L26.1694 5.87486C26.885 4.8398 27.9441 4.32227 29.3466 4.32227ZM27.4355 10.0798C27.4345 10.2692 27.4785 10.456 27.5637 10.6248C27.6489 10.7936 27.7729 10.9394 27.9254 11.0502C28.2521 11.309 28.6576 11.4461 29.0732 11.4383C29.6966 11.4373 30.2941 11.1873 30.7348 10.7433C31.2241 10.2794 31.4688 9.73507 31.4688 9.11034C31.0082 8.74068 30.366 8.55585 29.5421 8.55585C28.942 8.55585 28.4417 8.70156 28.041 8.99297C27.6364 9.28871 27.4355 9.6482 27.4355 10.0798Z" fill="black"/>
<path d="M40.9898 4.58203L36.0573 16H34.5324L36.3629 12.0049L33.1195 4.58203H34.7251L37.0693 10.2749H37.1014L39.3814 4.58203H40.9898Z" fill="black"/>
<path d="M13.9363 6.8061C13.9369 6.35266 13.8988 5.90001 13.8226 5.45312H7.59277V8.01582H11.1609C11.0879 8.42512 10.9334 8.81529 10.7066 9.16281C10.4799 9.51033 10.1856 9.80801 9.84155 10.0379V11.7014H11.9711C13.2179 10.5434 13.9363 8.83093 13.9363 6.8061Z" fill="#4285F4"/>
<path d="M7.59267 13.3062C9.37536 13.3062 10.8764 12.7166 11.971 11.7001L9.84145 10.0366C9.24875 10.4413 8.48539 10.6724 7.59267 10.6724C5.86962 10.6724 4.40713 9.5024 3.88416 7.92578H1.69043V9.6401C2.24025 10.7421 3.08335 11.6686 4.12559 12.316C5.16783 12.9633 6.36819 13.3062 7.59267 13.3062Z" fill="#34A853"/>
<path d="M3.88445 7.92732C3.60797 7.10116 3.60797 6.20649 3.88445 5.38033V3.66602H1.69072C1.22819 4.59309 0.987305 5.61627 0.987305 6.65383C0.987305 7.69138 1.22819 8.71457 1.69072 9.64164L3.88445 7.92732Z" fill="#FBBC04"/>
<path d="M7.59267 2.6343C8.53474 2.61879 9.44503 2.97732 10.1268 3.63239L12.0122 1.73324C10.8167 0.602136 9.2328 -0.0188591 7.59267 0.000436562C6.36819 0.000492774 5.16783 0.343351 4.12559 0.990733C3.08335 1.63812 2.24025 2.56454 1.69043 3.66658L3.88416 5.3809C4.40713 3.80428 5.86962 2.6343 7.59267 2.6343Z" fill="#EA4335"/>
</g>
<defs>
<clipPath id="clip0_1709_4150">
<rect width="40" height="16" fill="white" transform="translate(0.986816)"/>
</clipPath>
</defs>
</svg>
