<svg width="25" height="16" viewBox="0 0 25 16" fill="none" xmlns="http://www.w3.org/2000/svg">
<g clip-path="url(#clip0_1709_4143)">
<path d="M16.221 2.18555H9.73697V13.8414H16.221V2.18555Z" fill="#FF5F00"/>
<path d="M10.1498 8.01322C10.1498 5.64498 11.2613 3.54446 12.9698 2.1853C11.7142 1.19682 10.1292 0.599609 8.40013 0.599609C4.30387 0.599609 0.989807 3.91514 0.989807 8.01322C0.989807 12.1113 4.30387 15.4268 8.40013 15.4268C10.1292 15.4268 11.7142 14.8296 12.9698 13.8411C11.2613 12.5026 10.1498 10.3815 10.1498 8.01322Z" fill="#EB001B"/>
<path d="M24.9702 8.01322C24.9702 12.1113 21.6562 15.4268 17.5599 15.4268C15.8308 15.4268 14.2458 14.8296 12.9902 13.8411C14.7193 12.482 15.8102 10.3815 15.8102 8.01322C15.8102 5.64498 14.6987 3.54446 12.9902 2.1853C14.2458 1.19682 15.8308 0.599609 17.5599 0.599609C21.6562 0.599609 24.9702 3.93573 24.9702 8.01322Z" fill="#F79E1B"/>
</g>
<defs>
<clipPath id="clip0_1709_4143">
<rect width="24" height="16" fill="white" transform="translate(0.986816)"/>
</clipPath>
</defs>
</svg>
