<svg width="39" height="12" viewBox="0 0 39 12" fill="none" xmlns="http://www.w3.org/2000/svg">
<g clip-path="url(#clip0_1709_4140)">
<path d="M20.6395 3.82012C20.6178 5.48501 22.1628 6.41415 23.3267 6.96652C24.5226 7.53333 24.9242 7.89676 24.9197 8.40356C24.9105 9.17933 23.9657 9.52164 23.0814 9.53498C21.5387 9.55831 20.6418 9.12931 19.9286 8.80478L19.3729 11.3377C20.0884 11.6589 21.4132 11.9389 22.787 11.9512C26.0117 11.9512 28.1215 10.4008 28.1329 7.99679C28.1455 4.94598 23.8003 4.77705 23.8299 3.41335C23.8402 2.99991 24.2453 2.55868 25.1331 2.44643C25.5724 2.38974 26.7853 2.3464 28.1603 2.96323L28.7 0.51258C27.9606 0.250288 27.0101 -0.000889778 25.8268 -0.000889778C22.7916 -0.000889778 20.6566 1.57064 20.6395 3.82012ZM33.8862 0.210278C33.2974 0.210278 32.8011 0.544811 32.5797 1.05828L27.9732 11.7711H31.1956L31.8369 10.0451H35.7747L36.1467 11.7711H38.9868L36.5084 0.210278H33.8862ZM34.3369 3.33333L35.2669 7.67448H32.72L34.3369 3.33333ZM16.7325 0.210278L14.1924 11.7711H17.2631L19.802 0.210278H16.7325ZM12.1899 0.210278L8.99372 8.07903L7.70089 1.38837C7.54912 0.641503 6.95006 0.210278 6.28482 0.210278H1.05985L0.986816 0.545922C2.05942 0.772649 3.27809 1.1383 4.01636 1.52952C4.46823 1.76847 4.59717 1.97741 4.74551 2.54534L7.19425 11.7711H10.4395L15.4145 0.210278H12.1899Z" fill="black"/>
</g>
<defs>
<clipPath id="clip0_1709_4140">
<rect width="38" height="12" fill="white" transform="translate(0.986816)"/>
</clipPath>
</defs>
</svg>
